<svg width="739" height="124" viewBox="0 0 739 124" fill="none" xmlns="http://www.w3.org/2000/svg">
<path d="M179.735 122.09V30.5225H193.39V122.09H179.735ZM179.735 13.8556V0H193.39V13.8556H179.735Z" fill="#1B47F7"/>
<path d="M141.982 32.1282V6.02344H155.636V32.1282H169.492V44.3774H155.636V102.41C155.636 104.017 156.239 105.423 157.444 106.627C158.649 107.832 160.054 108.435 161.661 108.435H169.492V122.089H157.243C153.093 122.089 149.478 120.617 146.399 117.672C143.454 114.593 141.982 110.978 141.982 106.828V44.3774H129.732V32.1282H141.982Z" fill="#1B47F7"/>
<path d="M49.7856 97.5921C49.7856 89.8276 53.3332 83.4018 60.4284 78.3147C66.8542 73.7631 74.7526 71.0857 84.1235 70.2825C90.6832 69.747 95.6364 68.7429 98.9832 67.2704C103.669 65.3962 106.011 62.3171 106.011 58.0333C106.011 53.3478 104.204 49.3986 100.59 46.1857C96.9751 42.9728 92.6912 41.3664 87.738 41.3664C82.5171 41.3664 77.9655 42.9059 74.0832 45.9849C70.0671 49.1978 68.059 53.2139 68.059 58.0333V61.0454H54.2034V55.0212C54.2034 47.2567 57.684 40.8978 64.6453 35.9446C71.0711 31.393 78.7687 29.1172 87.738 29.1172C96.3058 29.1172 103.736 31.4599 110.028 36.1454C116.587 41.0986 119.867 47.3906 119.867 55.0212V100.805C119.867 103.349 120.804 105.49 122.678 107.231C124.419 108.971 126.561 109.841 129.104 109.841V122.09H123.682C120.068 122.09 116.788 121.153 113.843 119.279C110.898 117.271 108.823 114.661 107.618 111.448C104.807 115.598 100.857 118.677 95.7703 120.685C91.0848 122.559 85.9308 123.496 80.3082 123.496C71.0711 123.496 63.7082 121.153 58.2195 116.468C52.5969 111.782 49.7856 105.49 49.7856 97.5921ZM63.4405 97.5921C63.4405 101.474 65.1808 104.687 68.6614 107.231C71.8743 109.507 75.7566 110.645 80.3082 110.645C87.2695 110.645 93.2267 108.57 98.18 104.42C103.401 100.27 106.011 94.9816 106.011 88.5558V76.3066C102.263 79.3857 95.4356 81.3268 85.5292 82.13L81.7138 82.3308C76.7606 82.7324 72.5437 84.272 69.063 86.9494C65.3147 89.7607 63.4405 93.3082 63.4405 97.5921Z" fill="#1B47F7"/>
<path d="M0 122.089V32.1279H13.6548V47.9916C15.6629 42.5029 19.2774 38.2191 24.4984 35.14C29.4516 32.061 35.0072 30.5215 41.1653 30.5215H47.1895V44.3771H41.1653C33.4008 44.3771 26.8411 47.4561 21.4863 53.6142C16.2653 59.5045 13.6548 66.5997 13.6548 74.8997V122.089H0Z" fill="#1B47F7"/>
<path d="M366.955 29.2168V123.495H248.293L248.299 123.487C247.994 123.492 247.687 123.495 247.379 123.495C234.874 123.495 224.856 119.216 217.326 110.657C209.796 102.099 206.031 90.6643 206.031 76.3555C206.031 62.0469 209.796 50.6132 217.326 42.0547C224.856 33.4962 234.874 29.2169 247.379 29.2168C247.689 29.2168 247.998 29.2194 248.305 29.2246L248.293 29.2168H366.955ZM325.733 41.2803V55.7549H340.208V113.653H354.682V41.2803H325.733ZM247.379 41.4531C239.043 41.4532 232.319 44.6623 227.209 51.0811C222.234 57.3662 219.747 65.7912 219.747 76.3555C219.747 86.9199 222.234 95.4121 227.209 101.831C232.319 108.25 239.043 111.46 247.379 111.46C255.716 111.46 262.44 108.25 267.55 101.831C272.526 95.4121 275.013 86.9199 275.013 76.3555C275.013 65.7912 272.526 57.3662 267.55 51.0811C262.44 44.6622 255.716 41.4531 247.379 41.4531Z" fill="#1B47F7"/>
<path d="M696.978 31.8447C709.903 31.8448 719.468 37.3462 725.873 45.5889C732.337 53.9082 735.655 65.1362 735.655 76.5C735.655 87.8638 732.337 99.0918 725.873 107.411C719.468 115.654 709.903 121.155 696.978 121.155H382.845V31.8447H696.978Z" stroke="#1B47F7" stroke-width="5.68921"/>
<path d="M682.254 102.001V61.1955H688.448V68.391C689.358 65.9014 690.998 63.9583 693.366 62.5617C695.613 61.1651 698.133 60.4668 700.926 60.4668H703.658V66.7515H700.926C697.404 66.7515 694.429 68.1482 692 70.9414C689.632 73.6132 688.448 76.8314 688.448 80.5962V102.001H682.254Z" fill="#1B47F7"/>
<path d="M639.054 81.2327C639.054 74.7354 640.754 69.5437 644.154 65.6575C647.555 61.7712 652.079 59.8281 657.726 59.8281C663.373 59.8281 667.927 61.7712 671.388 65.6575C674.789 69.5437 676.489 74.7354 676.489 81.2327C676.489 87.73 674.789 92.9217 671.388 96.808C667.927 100.694 663.373 102.637 657.726 102.637C652.079 102.637 647.555 100.694 644.154 96.808C640.754 92.9217 639.054 87.73 639.054 81.2327ZM645.247 81.2327C645.247 86.0298 646.371 89.8856 648.617 92.8003C650.925 95.715 653.961 97.1723 657.726 97.1723C661.491 97.1723 664.527 95.715 666.834 92.8003C669.081 89.8856 670.204 86.0298 670.204 81.2327C670.204 76.4356 669.081 72.6101 666.834 69.7562C664.527 66.8415 661.491 65.3842 657.726 65.3842C653.961 65.3842 650.925 66.8415 648.617 69.7562C646.371 72.6101 645.247 76.4356 645.247 81.2327Z" fill="#1B47F7"/>
<path d="M624.205 61.1943V49.3535H630.399V61.1943H636.684V66.7504H630.399V93.0735C630.399 93.8022 630.672 94.4398 631.219 94.9863C631.765 95.5328 632.403 95.806 633.132 95.806H636.684V102H631.128C629.245 102 627.606 101.332 626.209 99.9958C624.873 98.5992 624.205 96.9597 624.205 95.0773V66.7504H618.649V61.1943H624.205Z" fill="#1B47F7"/>
<path d="M582.387 90.8875C582.387 87.3656 583.996 84.451 587.214 82.1435C590.129 80.079 593.711 78.8645 597.962 78.5002C600.937 78.2573 603.184 77.8019 604.702 77.134C606.827 76.2838 607.89 74.8872 607.89 72.9441C607.89 70.8188 607.07 69.0275 605.431 67.5702C603.791 66.1129 601.848 65.3842 599.601 65.3842C597.233 65.3842 595.169 66.0825 593.408 67.4791C591.586 68.9365 590.675 70.7581 590.675 72.9441V74.3104H584.391V71.5779C584.391 68.056 585.969 65.1717 589.127 62.925C592.042 60.8604 595.533 59.8281 599.601 59.8281C603.488 59.8281 606.858 60.8908 609.712 63.016C612.687 65.2628 614.175 68.1167 614.175 71.5779V92.3449C614.175 93.4986 614.6 94.4701 615.45 95.2595C616.239 96.0489 617.211 96.4436 618.365 96.4436V102H615.905C614.266 102 612.778 101.575 611.442 100.725C610.106 99.8137 609.165 98.6296 608.619 97.1723C607.344 99.0547 605.552 100.451 603.245 101.362C601.12 102.212 598.782 102.637 596.231 102.637C592.042 102.637 588.702 101.575 586.212 99.4494C583.662 97.3241 582.387 94.4701 582.387 90.8875ZM588.58 90.8875C588.58 92.6485 589.37 94.1058 590.949 95.2595C592.406 96.2918 594.167 96.808 596.231 96.808C599.389 96.808 602.091 95.8668 604.338 93.9844C606.706 92.102 607.89 89.7035 607.89 86.7888V81.2327C606.19 82.6293 603.093 83.5098 598.6 83.8741L596.869 83.9652C594.622 84.1474 592.709 84.8457 591.131 86.0601C589.43 87.3353 588.58 88.9444 588.58 90.8875Z" fill="#1B47F7"/>
<path d="M570.904 102V46.6211H577.098V102H570.904Z" fill="#1B47F7"/>
<path d="M529.644 86.1521V61.1953H535.837V85.4235C535.837 88.581 536.718 91.2832 538.479 93.5299C540.361 95.9588 542.729 97.1732 545.583 97.1732C548.68 97.1732 551.291 96.0195 553.416 93.7121C555.542 91.4046 556.604 88.6418 556.604 85.4235V61.1953H562.889V102.001H556.604V96.4446C555.45 98.5091 553.69 100.088 551.321 101.181C549.196 102.152 546.828 102.638 544.217 102.638C540.027 102.638 536.536 100.968 533.742 97.6286C531.01 94.4104 529.644 90.5849 529.644 86.1521Z" fill="#1B47F7"/>
<path d="M490.29 81.2327C490.29 74.7354 491.93 69.5437 495.209 65.6575C498.488 61.7712 502.86 59.8281 508.325 59.8281C513.122 59.8281 517.099 61.2247 520.256 64.018C523.353 66.7505 525.114 70.4242 525.539 75.039H519.346C519.103 72.1244 517.979 69.7866 515.976 68.0256C513.972 66.2647 511.421 65.3842 508.325 65.3842C504.742 65.3842 501.888 66.8415 499.763 69.7562C497.577 72.6101 496.484 76.4356 496.484 81.2327C496.484 86.0298 497.577 89.8856 499.763 92.8003C501.888 95.715 504.742 97.1723 508.325 97.1723C511.361 97.1723 513.881 96.2311 515.884 94.3487C517.888 92.4663 519.042 89.9463 519.346 86.7888H525.539C525.114 91.5858 523.323 95.4113 520.165 98.2653C517.069 101.18 513.122 102.637 508.325 102.637C502.86 102.637 498.488 100.694 495.209 96.808C491.93 92.9217 490.29 87.73 490.29 81.2327Z" fill="#1B47F7"/>
<path d="M478.353 102V46.6211H484.546V102H478.353Z" fill="#1B47F7"/>
<path d="M437.991 90.8875C437.991 87.3656 439.6 84.451 442.819 82.1435C445.733 80.079 449.316 78.8645 453.566 78.5002C456.542 78.2573 458.789 77.8019 460.307 77.134C462.432 76.2838 463.495 74.8872 463.495 72.9441C463.495 70.8188 462.675 69.0275 461.035 67.5702C459.396 66.1129 457.453 65.3842 455.206 65.3842C452.838 65.3842 450.773 66.0825 449.012 67.4791C447.191 68.9365 446.28 70.7581 446.28 72.9441V74.3104H439.995V71.5779C439.995 68.056 441.574 65.1717 444.731 62.925C447.646 60.8604 451.138 59.8281 455.206 59.8281C459.092 59.8281 462.462 60.8908 465.316 63.016C468.292 65.2628 469.779 68.1167 469.779 71.5779V92.3449C469.779 93.4986 470.204 94.4701 471.054 95.2595C471.844 96.0489 472.815 96.4436 473.969 96.4436V102H471.51C469.87 102 468.383 101.575 467.047 100.725C465.711 99.8137 464.77 98.6296 464.223 97.1723C462.948 99.0547 461.157 100.451 458.849 101.362C456.724 102.212 454.386 102.637 451.836 102.637C447.646 102.637 444.306 101.575 441.817 99.4494C439.266 97.3241 437.991 94.4701 437.991 90.8875ZM444.185 90.8875C444.185 92.6485 444.974 94.1058 446.553 95.2595C448.01 96.2918 449.771 96.808 451.836 96.808C454.993 96.808 457.696 95.8668 459.942 93.9844C462.31 92.102 463.495 89.7035 463.495 86.7888V81.2327C461.794 82.6293 458.697 83.5098 454.204 83.8741L452.473 83.9652C450.227 84.1474 448.314 84.8457 446.735 86.0601C445.035 87.3353 444.185 88.9444 444.185 90.8875Z" fill="#1B47F7"/>
<path d="M400.459 81.2327C400.459 74.7354 402.099 69.5437 405.378 65.6575C408.657 61.7712 413.029 59.8281 418.494 59.8281C423.291 59.8281 427.268 61.2247 430.426 64.018C433.523 66.7505 435.284 70.4242 435.709 75.039H429.515C429.272 72.1244 428.149 69.7866 426.145 68.0256C424.141 66.2647 421.591 65.3842 418.494 65.3842C414.911 65.3842 412.057 66.8415 409.932 69.7562C407.746 72.6101 406.653 76.4356 406.653 81.2327C406.653 86.0298 407.746 89.8856 409.932 92.8003C412.057 95.715 414.911 97.1723 418.494 97.1723C421.53 97.1723 424.05 96.2311 426.054 94.3487C428.058 92.4663 429.211 89.9463 429.515 86.7888H435.709C435.284 91.5858 433.492 95.4113 430.335 98.2653C427.238 101.18 423.291 102.637 418.494 102.637C413.029 102.637 408.657 100.694 405.378 96.808C402.099 92.9217 400.459 87.73 400.459 81.2327Z" fill="#1B47F7"/>
</svg>
